<svg width="18" height="22" viewBox="0 0 18 22" fill="none" xmlns="http://www.w3.org/2000/svg">
<path d="M8.96424 1.66992C13.712 1.66992 17.5606 6.14692 17.5606 11.6699C17.5606 17.1929 13.712 21.6699 8.96424 21.6699C4.21649 21.6699 0.36792 17.1929 0.36792 11.6699C0.36792 6.14692 4.21649 1.66992 8.96424 1.66992ZM8.96424 3.66992C7.14033 3.66992 5.39113 4.51278 4.10143 6.01307C2.81173 7.51336 2.08718 9.54819 2.08718 11.6699C2.08718 13.7917 2.81173 15.8265 4.10143 17.3268C5.39113 18.8271 7.14033 19.6699 8.96424 19.6699C10.7882 19.6699 12.5374 18.8271 13.8271 17.3268C15.1168 15.8265 15.8413 13.7917 15.8413 11.6699C15.8413 9.54819 15.1168 7.51336 13.8271 6.01307C12.5374 4.51278 10.7882 3.66992 8.96424 3.66992ZM8.96424 5.66992C9.17479 5.66995 9.37802 5.75988 9.53536 5.92264C9.6927 6.0854 9.79322 6.30967 9.81786 6.55292L9.82387 6.66992V11.2559L12.1509 13.9629C12.3051 14.1429 12.3946 14.3844 12.4012 14.6383C12.4079 14.8923 12.3312 15.1396 12.1868 15.3302C12.0423 15.5208 11.841 15.6402 11.6235 15.6643C11.4061 15.6884 11.189 15.6153 11.0162 15.4599L10.9354 15.3769L8.35648 12.3769C8.22288 12.2214 8.13707 12.0189 8.11235 11.8009L8.10461 11.6699V6.66992C8.10461 6.40471 8.19518 6.15035 8.35639 5.96282C8.5176 5.77528 8.73625 5.66992 8.96424 5.66992Z" fill="black"/>
</svg>
