<svg width="26" height="26" viewBox="0 0 26 26" fill="none" xmlns="http://www.w3.org/2000/svg">
<path d="M25 11.4972C24.6332 8.85258 23.4086 6.40217 21.515 4.52341C19.6213 2.64466 17.1636 1.44179 14.5205 1.1001C11.8774 0.758416 9.19543 1.29686 6.8878 2.6325C4.58017 3.96814 2.77487 6.02688 1.75 8.49158M1 2.48035V8.49158H7M1 14.5028C1.36684 17.1474 2.5914 19.5978 4.48504 21.4766C6.37869 23.3553 8.83637 24.5582 11.4795 24.8999C14.1226 25.2416 16.8046 24.7031 19.1122 23.3675C21.4198 22.0319 23.2251 19.9731 24.25 17.5084M25 23.5196V17.5084H19" stroke="black" stroke-width="2" stroke-linecap="round" stroke-linejoin="round"/>
</svg>
