<svg width="46" height="40" viewBox="0 0 46 40" fill="none" xmlns="http://www.w3.org/2000/svg">
<path d="M4.38095 0V3.47826H0V40H46V10.4348H28.4762V3.47826H24.0952V0H4.38095ZM6.57143 1.73913H21.9048V5.21739H26.2857V38.2609H16.4286V32.1739H12.0476V38.2609H2.19048V5.21739H6.57143V1.73913ZM6.57143 6.95652V8.69565H8.7619V6.95652H6.57143ZM10.9524 6.95652V8.69565H13.1429V6.95652H10.9524ZM15.3333 6.95652V8.69565H17.5238V6.95652H15.3333ZM19.7143 6.95652V8.69565H21.9048V6.95652H19.7143ZM6.57143 11.3043V14.7826H8.7619V11.3043H6.57143ZM10.9524 11.3043V14.7826H13.1429V11.3043H10.9524ZM15.3333 11.3043V14.7826H17.5238V11.3043H15.3333ZM19.7143 11.3043V14.7826H21.9048V11.3043H19.7143ZM28.4762 12.1739H43.8095V38.2609H28.4762V12.1739ZM30.6667 13.913V15.6522H32.8571V13.913H30.6667ZM35.0476 13.913V15.6522H37.2381V13.913H35.0476ZM39.4286 13.913V15.6522H41.619V13.913H39.4286ZM6.57143 16.5217V20H8.7619V16.5217H6.57143ZM10.9524 16.5217V20H13.1429V16.5217H10.9524ZM15.3333 16.5217V20H17.5238V16.5217H15.3333ZM19.7143 16.5217V20H21.9048V16.5217H19.7143ZM30.6667 17.3913V19.1304H32.8571V17.3913H30.6667ZM35.0476 17.3913V19.1304H37.2381V17.3913H35.0476ZM39.4286 17.3913V19.1304H41.619V17.3913H39.4286ZM30.6667 20.8696V22.6087H32.8571V20.8696H30.6667ZM35.0476 20.8696V22.6087H37.2381V20.8696H35.0476ZM39.4286 20.8696V22.6087H41.619V20.8696H39.4286ZM6.57143 21.7391V25.2174H8.7619V21.7391H6.57143ZM10.9524 21.7391V25.2174H13.1429V21.7391H10.9524ZM15.3333 21.7391V25.2174H17.5238V21.7391H15.3333ZM19.7143 21.7391V25.2174H21.9048V21.7391H19.7143ZM30.6667 24.3478V26.087H32.8571V24.3478H30.6667ZM35.0476 24.3478V26.087H37.2381V24.3478H35.0476ZM39.4286 24.3478V26.087H41.619V24.3478H39.4286ZM6.57143 26.9565V30.4348H8.7619V26.9565H6.57143ZM10.9524 26.9565V30.4348H13.1429V26.9565H10.9524ZM15.3333 26.9565V30.4348H17.5238V26.9565H15.3333ZM19.7143 26.9565V30.4348H21.9048V26.9565H19.7143ZM30.6667 27.8261V29.5652H32.8571V27.8261H30.6667ZM35.0476 27.8261V29.5652H37.2381V27.8261H35.0476ZM39.4286 27.8261V29.5652H41.619V27.8261H39.4286ZM30.6667 31.3043V33.0435H32.8571V31.3043H30.6667ZM35.0476 31.3043V33.0435H37.2381V31.3043H35.0476ZM39.4286 31.3043V33.0435H41.619V31.3043H39.4286ZM6.57143 32.1739V36.5217H8.7619V32.1739H6.57143ZM19.7143 32.1739V36.5217H21.9048V32.1739H19.7143ZM30.6667 34.7826V36.5217H32.8571V34.7826H30.6667ZM35.0476 34.7826V36.5217H37.2381V34.7826H35.0476ZM39.4286 34.7826V36.5217H41.619V34.7826H39.4286Z" fill="#00BFFF"/>
</svg>
