<svg width="27" height="20" viewBox="0 0 27 20" fill="none" xmlns="http://www.w3.org/2000/svg">
<path d="M13.3362 3.92C13.6771 3.92 14.004 3.81886 14.2451 3.63882C14.4862 3.45879 14.6216 3.21461 14.6216 2.96C14.6216 2.70539 14.4862 2.46121 14.2451 2.28118C14.004 2.10114 13.6771 2 13.3362 2C12.9953 2 12.6683 2.10114 12.4273 2.28118C12.1862 2.46121 12.0508 2.70539 12.0508 2.96C12.0508 3.21461 12.1862 3.45879 12.4273 3.63882C12.6683 3.81886 12.9953 3.92 13.3362 3.92ZM13.3362 10.96C13.6771 10.96 14.004 10.8589 14.2451 10.6788C14.4862 10.4988 14.6216 10.2546 14.6216 10C14.6216 9.74539 14.4862 9.50121 14.2451 9.32118C14.004 9.14114 13.6771 9.04 13.3362 9.04C12.9953 9.04 12.6683 9.14114 12.4273 9.32118C12.1862 9.50121 12.0508 9.74539 12.0508 10C12.0508 10.2546 12.1862 10.4988 12.4273 10.6788C12.6683 10.8589 12.9953 10.96 13.3362 10.96ZM13.3362 18C13.6771 18 14.004 17.8989 14.2451 17.7188C14.4862 17.5388 14.6216 17.2946 14.6216 17.04C14.6216 16.7854 14.4862 16.5412 14.2451 16.3612C14.004 16.1811 13.6771 16.08 13.3362 16.08C12.9953 16.08 12.6683 16.1811 12.4273 16.3612C12.1862 16.5412 12.0508 16.7854 12.0508 17.04C12.0508 17.2946 12.1862 17.5388 12.4273 17.7188C12.6683 17.8989 12.9953 18 13.3362 18Z" stroke="black" stroke-width="1.5" stroke-linecap="round" stroke-linejoin="round"/>
<path d="M13.3362 3.92C13.6771 3.92 14.004 3.81886 14.2451 3.63882C14.4862 3.45879 14.6216 3.21461 14.6216 2.96C14.6216 2.70539 14.4862 2.46121 14.2451 2.28118C14.004 2.10114 13.6771 2 13.3362 2C12.9953 2 12.6683 2.10114 12.4273 2.28118C12.1862 2.46121 12.0508 2.70539 12.0508 2.96C12.0508 3.21461 12.1862 3.45879 12.4273 3.63882C12.6683 3.81886 12.9953 3.92 13.3362 3.92ZM13.3362 10.96C13.6771 10.96 14.004 10.8589 14.2451 10.6788C14.4862 10.4988 14.6216 10.2546 14.6216 10C14.6216 9.74539 14.4862 9.50121 14.2451 9.32118C14.004 9.14114 13.6771 9.04 13.3362 9.04C12.9953 9.04 12.6683 9.14114 12.4273 9.32118C12.1862 9.50121 12.0508 9.74539 12.0508 10C12.0508 10.2546 12.1862 10.4988 12.4273 10.6788C12.6683 10.8589 12.9953 10.96 13.3362 10.96ZM13.3362 18C13.6771 18 14.004 17.8989 14.2451 17.7188C14.4862 17.5388 14.6216 17.2946 14.6216 17.04C14.6216 16.7854 14.4862 16.5412 14.2451 16.3612C14.004 16.1811 13.6771 16.08 13.3362 16.08C12.9953 16.08 12.6683 16.1811 12.4273 16.3612C12.1862 16.5412 12.0508 16.7854 12.0508 17.04C12.0508 17.2946 12.1862 17.5388 12.4273 17.7188C12.6683 17.8989 12.9953 18 13.3362 18Z" stroke="black" stroke-width="1.5" stroke-linecap="round" stroke-linejoin="round"/>
</svg>
