<svg width="14" height="14" viewBox="0 0 14 14" fill="none" xmlns="http://www.w3.org/2000/svg">
<path d="M6.3675 2.26465H2.19278C1.87643 2.26465 1.57305 2.39032 1.34936 2.61401C1.12567 2.83769 1 3.14108 1 3.45743V11.8069C1 12.1232 1.12567 12.4266 1.34936 12.6503C1.57305 12.874 1.87643 12.9997 2.19278 12.9997H10.5422C10.8586 12.9997 11.162 12.874 11.3856 12.6503C11.6093 12.4266 11.735 12.1232 11.735 11.8069V7.63215" stroke="black" stroke-linecap="round" stroke-linejoin="round"/>
<path d="M10.8402 1.37055C11.0775 1.13329 11.3993 1 11.7348 1C12.0703 1 12.3921 1.13329 12.6294 1.37055C12.8666 1.60781 12.9999 1.9296 12.9999 2.26513C12.9999 2.60067 12.8666 2.92246 12.6294 3.15972L6.96368 8.82541L4.57812 9.4218L5.17451 7.03624L10.8402 1.37055Z" stroke="black" stroke-linecap="round" stroke-linejoin="round"/>
</svg>
