<svg width="42" height="39" viewBox="0 0 42 39" fill="none" xmlns="http://www.w3.org/2000/svg">
<path d="M41.3043 6.13496C41.098 6.0315 40.868 5.98431 40.6375 5.99813C40.4071 6.01196 40.1844 6.08632 39.9918 6.21371L27.5625 14.535V7.30309C27.5629 7.05347 27.4921 6.80892 27.3584 6.59811C27.2248 6.3873 27.0337 6.21898 26.8078 6.11289C26.5818 6.0068 26.3303 5.96735 26.0827 5.99915C25.8352 6.03096 25.6018 6.13271 25.41 6.29246L15.0675 14.8368H10.5V2.52559C10.5074 2.22219 10.4094 1.9256 10.2228 1.6863C10.0361 1.44699 9.77232 1.27977 9.47624 1.21309L4.22625 0.0318446C4.03255 -0.0116196 3.83151 -0.0105783 3.63827 0.03489C3.44503 0.0803583 3.26462 0.169069 3.11062 0.294344C2.95305 0.42199 2.8272 0.584412 2.74294 0.768867C2.65868 0.953322 2.61831 1.15479 2.625 1.35747V14.8368H1.3125C0.964403 14.8368 0.630563 14.9751 0.384422 15.2213C0.138281 15.4674 0 15.8012 0 16.1493V37.1493C0 37.4974 0.138281 37.8312 0.384422 38.0774C0.630563 38.3235 0.964403 38.4618 1.3125 38.4618H40.6875C41.0356 38.4618 41.3694 38.3235 41.6155 38.0774C41.8617 37.8312 42 37.4974 42 37.1493V7.30309C42.0017 7.06343 41.9378 6.82786 41.8152 6.62194C41.6926 6.41602 41.5159 6.2476 41.3043 6.13496ZM5.25 3.02434L7.87499 3.60184V14.8368H5.25V3.02434ZM39.375 35.8368H2.625V17.4618H15.5269C15.8335 17.4624 16.1307 17.3556 16.3669 17.16L24.9375 10.0725V17.0025C24.9371 17.2409 25.0017 17.4749 25.1243 17.6794C25.247 17.8839 25.423 18.0511 25.6335 18.1631C25.844 18.2751 26.081 18.3277 26.3191 18.3151C26.5572 18.3025 26.7874 18.2254 26.985 18.0918L39.375 9.77059V35.8368Z" fill="#00BFFF"/>
<path d="M5.24988 20.0739H15.7499V22.6989H5.24988V20.0739ZM5.24988 25.3239H15.7499V27.9489H5.24988V25.3239ZM5.24988 30.5739H15.7499V33.1989H5.24988V30.5739ZM22.3124 21.3864H24.9374V25.3239H22.3124V21.3864ZM22.3124 29.2614H24.9374V33.1989H22.3124V29.2614ZM27.5624 21.3864H30.1874V25.3239H27.5624V21.3864ZM27.5624 29.2614H30.1874V33.1989H27.5624V29.2614ZM32.8124 21.3864H35.4374V25.3239H32.8124V21.3864ZM32.8124 29.2614H35.4374V33.1989H32.8124V29.2614Z" fill="#00BFFF"/>
</svg>
