<svg width="12" height="12" viewBox="0 0 12 12" fill="none" xmlns="http://www.w3.org/2000/svg">
<path d="M3.48 1.08H3.36C3.426 1.08 3.48 1.026 3.48 0.96V1.08H8.04V0.96C8.04 1.026 8.094 1.08 8.16 1.08H8.04V2.16H9.12V0.96C9.12 0.4305 8.6895 0 8.16 0H3.36C2.8305 0 2.4 0.4305 2.4 0.96V2.16H3.48V1.08ZM11.04 2.16H0.48C0.2145 2.16 0 2.3745 0 2.64V3.12C0 3.186 0.054 3.24 0.12 3.24H1.026L1.3965 11.085C1.4205 11.5965 1.8435 12 2.355 12H9.165C9.678 12 10.0995 11.598 10.1235 11.085L10.494 3.24H11.4C11.466 3.24 11.52 3.186 11.52 3.12V2.64C11.52 2.3745 11.3055 2.16 11.04 2.16ZM9.0495 10.92H2.4705L2.1075 3.24H9.4125L9.0495 10.92Z" fill="black"/>
</svg>
