<svg width="38" height="38" viewBox="0 0 38 38" fill="none" xmlns="http://www.w3.org/2000/svg">
<path d="M34.4667 34.4667V10.5666L34.0789 11.3403L33.9333 11.2675V34.4667M34.4667 34.4667L32.9333 10.7675V34.4667H33.9333M34.4667 34.4667H33.9333M33.9333 34.4667V35.4667M17.5385 1.95101L17.3082 2.41064L6.06667 8.0314V7.86663H5.2038L17.7068 1.61511L17.5385 1.95101ZM19.894 1.71464L20.0139 1.47547L33.873 7.28702L33.5826 7.86663H32.9333H32.7962L32.9333 7.9352L33.425 8.18104L33.306 8.41862L33.1861 8.65779L32.9333 8.5314L31.9333 8.0314V8.86663V9.14944L20.118 3.24178L20.9099 2.84584L20.6918 2.41064L20.1174 2.12344L19.775 1.95221L19.894 1.71464ZM4.06667 11.2675V34.4667H3.53333V10.5666L3.92105 11.3403L4.06667 11.2675ZM1 36.4667H1.53333V36.7333V37H1V36.4667ZM11.6667 37H6.06667V36.7333V36.4667H11.6667V36.7333V37ZM16.2 36.7333V36.4667H21.8V36.7333V37H16.2V36.7333ZM26.3333 36.7333V36.4667H31.9333V36.7333V37H26.3333V36.7333ZM24.3333 28.8667V34.4667H23.8V28.8667H24.0667H24.3333ZM21.8 26.6V26.8667H16.2V26.6V26.3333H21.8V26.6ZM13.9333 28.8667H14.2V34.4667H13.6667V28.8667H13.9333Z" fill="#00BFFF" stroke="#00BFFF" stroke-width="2"/>
</svg>
