<svg width="45" height="39" viewBox="0 0 45 39" fill="none" xmlns="http://www.w3.org/2000/svg">
<path d="M23.418 0.320213C23.1518 0.112697 22.824 0 22.4865 0C22.149 0 21.8212 0.112697 21.555 0.320213L0 17.1281L1.8645 19.4861L4.5 17.4311V35.9999C4.50159 36.7951 4.81817 37.5573 5.38043 38.1196C5.9427 38.6818 6.70484 38.9984 7.5 39H37.5C38.2952 38.9984 39.0573 38.6818 39.6196 38.1196C40.1818 37.5573 40.4984 36.7951 40.5 35.9999V17.4446L43.1355 19.4996L45 17.1416L23.418 0.320213ZM25.5 35.9999H19.5V23.9997H25.5V35.9999ZM28.5 35.9999V23.9997C28.5 23.204 28.1839 22.441 27.6213 21.8783C27.0587 21.3157 26.2956 20.9996 25.5 20.9996H19.5C18.7044 20.9996 17.9413 21.3157 17.3787 21.8783C16.8161 22.441 16.5 23.204 16.5 23.9997V35.9999H7.5V15.0925L22.5 3.40728L37.5 15.1075V35.9999H28.5Z" fill="#00BFFF"/>
</svg>
